<svg xmlns="http://www.w3.org/2000/svg" width="1200" height="750" viewBox="0 0 1200 750" role="img" aria-label="Prévia do painel de ordens de serviço ScarTech">
  <defs>
    <linearGradient id="bar" x1="0%" y1="0%" x2="100%" y2="0%">
      <stop offset="0%" style="stop-color:#1e40af"/>
      <stop offset="100%" style="stop-color:#3b82f6"/>
    </linearGradient>
  </defs>
  <rect width="1200" height="750" fill="#020617" rx="12"/>
  <rect x="0" y="0" width="220" height="750" fill="#0f172a"/>
  <rect x="24" y="32" width="172" height="36" rx="8" fill="url(#bar)" opacity="0.9"/>
  <text x="110" y="56" fill="#fff" font-family="system-ui,sans-serif" font-size="13" font-weight="700" text-anchor="middle">Painel</text>
  <rect x="24" y="88" width="172" height="32" rx="6" fill="#1e293b"/>
  <text x="36" y="108" fill="#94a3b8" font-family="system-ui,sans-serif" font-size="12">Ordens de serviço</text>
  <rect x="24" y="132" width="172" height="32" rx="6" fill="#1e293b"/>
  <text x="36" y="152" fill="#94a3b8" font-family="system-ui,sans-serif" font-size="12">Estoque</text>
  <rect x="24" y="176" width="172" height="32" rx="6" fill="#1e293b"/>
  <text x="36" y="196" fill="#94a3b8" font-family="system-ui,sans-serif" font-size="12">Financeiro</text>
  <rect x="250" y="24" width="926" height="56" rx="10" fill="#0f172a" stroke="#1e293b"/>
  <text x="280" y="58" fill="#f1f5f9" font-family="system-ui,sans-serif" font-size="18" font-weight="700">Ordens de serviço</text>
  <rect x="980" y="36" width="180" height="36" rx="8" fill="#1d4ed8"/>
  <text x="1070" y="59" fill="#fff" font-family="system-ui,sans-serif" font-size="13" font-weight="600" text-anchor="middle">Nova OS</text>
  <rect x="250" y="100" width="290" height="100" rx="12" fill="#0f172a" stroke="rgba(59,130,246,0.3)"/>
  <text x="270" y="135" fill="#94a3b8" font-family="system-ui,sans-serif" font-size="12">Em aberto</text>
  <text x="270" y="175" fill="#fff" font-family="system-ui,sans-serif" font-size="28" font-weight="800">24</text>
  <rect x="560" y="100" width="290" height="100" rx="12" fill="#0f172a" stroke="rgba(59,130,246,0.3)"/>
  <text x="580" y="135" fill="#94a3b8" font-family="system-ui,sans-serif" font-size="12">Em execução</text>
  <text x="580" y="175" fill="#fff" font-family="system-ui,sans-serif" font-size="28" font-weight="800">12</text>
  <rect x="870" y="100" width="306" height="100" rx="12" fill="#0f172a" stroke="rgba(59,130,246,0.3)"/>
  <text x="890" y="135" fill="#94a3b8" font-family="system-ui,sans-serif" font-size="12">Finalizadas (mês)</text>
  <text x="890" y="175" fill="#22c55e" font-family="system-ui,sans-serif" font-size="28" font-weight="800">156</text>
  <rect x="250" y="220" width="926" height="480" rx="12" fill="#0f172a" stroke="#1e293b"/>
  <rect x="270" y="250" width="120" height="14" rx="3" fill="#334155"/>
  <rect x="400" y="250" width="80" height="14" rx="3" fill="#334155"/>
  <rect x="500" y="250" width="100" height="14" rx="3" fill="#334155"/>
  <rect x="620" y="250" width="90" height="14" rx="3" fill="#334155"/>
  <rect x="270" y="290" width="886" height="48" rx="8" fill="#1e293b"/>
  <rect x="270" y="350" width="886" height="48" rx="8" fill="#1e293b"/>
  <rect x="270" y="410" width="886" height="48" rx="8" fill="#1e293b"/>
  <rect x="270" y="470" width="886" height="48" rx="8" fill="#1e293b"/>
  <circle cx="300" cy="314" r="8" fill="#3b82f6"/>
  <text x="330" y="320" fill="#e2e8f0" font-family="system-ui,sans-serif" font-size="13">OS #1042 · Notebook Dell</text>
  <text x="800" y="320" fill="#eab308" font-family="system-ui,sans-serif" font-size="12">Aguardando peça</text>
  <circle cx="300" cy="374" r="8" fill="#22c55e"/>
  <text x="330" y="380" fill="#e2e8f0" font-family="system-ui,sans-serif" font-size="13">OS #1038 · iPhone 14</text>
  <text x="800" y="380" fill="#22c55e" font-family="system-ui,sans-serif" font-size="12">Pronto p/ retirada</text>
</svg>
