<svg xmlns="http://www.w3.org/2000/svg" width="1200" height="750" viewBox="0 0 1200 750" role="img" aria-label="Prévia de estoque e visăo financeira ScarTech">
  <rect width="1200" height="750" fill="#020617" rx="12"/>
  <text x="40" y="52" fill="#f8fafc" font-family="system-ui,sans-serif" font-size="20" font-weight="700">Visăo geral</text>
  <text x="40" y="78" fill="#64748b" font-family="system-ui,sans-serif" font-size="14">Estoque e faturamento em um só lugar</text>
  <rect x="40" y="110" width="540" height="320" rx="14" fill="#0f172a" stroke="rgba(59,130,246,0.35)"/>
  <text x="60" y="148" fill="#93c5fd" font-family="system-ui,sans-serif" font-size="15" font-weight="700">Estoque em tempo real</text>
  <rect x="60" y="170" width="200" height="12" rx="3" fill="#334155"/>
  <rect x="60" y="210" width="480" height="36" rx="6" fill="#1e293b"/>
  <rect x="60" y="258" width="480" height="36" rx="6" fill="#1e293b"/>
  <rect x="60" y="306" width="480" height="36" rx="6" fill="#1e293b"/>
  <rect x="60" y="354" width="480" height="36" rx="6" fill="#1e293b"/>
  <rect x="70" y="222" width="8" height="12" fill="#3b82f6"/>
  <text x="90" y="232" fill="#cbd5e1" font-family="system-ui,sans-serif" font-size="13">Tela LCD iPhone 11  14 un.</text>
  <rect x="70" y="270" width="8" height="12" fill="#22c55e"/>
  <text x="90" y="280" fill="#cbd5e1" font-family="system-ui,sans-serif" font-size="13">Bateria Samsung A54  Baixo</text>
  <rect x="600" y="110" width="560" height="320" rx="14" fill="#0f172a" stroke="rgba(59,130,246,0.35)"/>
  <text x="620" y="148" fill="#93c5fd" font-family="system-ui,sans-serif" font-size="15" font-weight="700">Faturamento</text>
  <polyline points="640,340 700,280 780,300 860,220 940,250 1020,200 1100,230" fill="none" stroke="#3b82f6" stroke-width="3" stroke-linecap="round"/>
  <rect x="640" y="360" width="60" height="50" rx="6" fill="#1e3a8a" opacity="0.6"/>
  <rect x="720" y="330" width="60" height="80" rx="6" fill="#2563eb" opacity="0.7"/>
  <rect x="800" y="350" width="60" height="60" rx="6" fill="#3b82f6" opacity="0.8"/>
  <rect x="880" y="300" width="60" height="110" rx="6" fill="#60a5fa" opacity="0.85"/>
  <rect x="960" y="320" width="60" height="90" rx="6" fill="#3b82f6" opacity="0.75"/>
  <rect x="1040" y="280" width="60" height="130" rx="6" fill="#1d4ed8" opacity="0.9"/>
  <rect x="40" y="460" width="1120" height="250" rx="14" fill="#0f172a" stroke="#1e293b"/>
  <text x="60" y="500" fill="#e2e8f0" font-family="system-ui,sans-serif" font-size="15" font-weight="700">Relatórios e segurança</text>
  <text x="60" y="530" fill="#94a3b8" font-family="system-ui,sans-serif" font-size="13">Dados protegidos · visăo por perfil · fornecedores e assistęncias</text>
  <rect x="60" y="560" width="340" height="120" rx="10" fill="#1e293b"/>
  <rect x="430" y="560" width="340" height="120" rx="10" fill="#1e293b"/>
  <rect x="800" y="560" width="340" height="120" rx="10" fill="#1e293b"/>
  <text x="80" y="600" fill="#cbd5e1" font-family="system-ui,sans-serif" font-size="13" font-weight="600">Vendas &amp; NF</text>
  <text x="80" y="625" fill="#64748b" font-family="system-ui,sans-serif" font-size="12">Faturamento consolidado</text>
  <text x="450" y="600" fill="#cbd5e1" font-family="system-ui,sans-serif" font-size="13" font-weight="600">Fornecedor</text>
  <text x="450" y="625" fill="#64748b" font-family="system-ui,sans-serif" font-size="12">Portal B2B para peças</text>
  <text x="820" y="600" fill="#cbd5e1" font-family="system-ui,sans-serif" font-size="13" font-weight="600">Criptografia</text>
  <text x="820" y="625" fill="#64748b" font-family="system-ui,sans-serif" font-size="12">Conexăo segura</text>
</svg>
